<svg xmlns="http://www.w3.org/2000/svg" width="420" height="230" viewBox="0 0 420 230" role="img" aria-labelledby="title desc">
  <title id="title">nestjs/nest #17625: merged</title>
  <desc id="desc">fix(core): clean up repeated shutdown signal listeners. Fixed process-listener leaks from repeated shutdown-hook registration, with regression tests. +309 −35, merged 14 Sep 2026.</desc>
  <defs>
    <linearGradient id="bg" x1="0" y1="0" x2="1" y2="1"><stop offset="0" stop-color="#0b0d1d"/><stop offset="1" stop-color="#121531"/></linearGradient>
    <linearGradient id="accent" x1="0" y1="0" x2="1" y2="0"><stop offset="0" stop-color="#f43f5e"/><stop offset="1" stop-color="#fb7185"/></linearGradient>
    <radialGradient id="glow" cx="1" cy="0" r="1"><stop offset="0" stop-color="#fb7185" stop-opacity=".22"/><stop offset="1" stop-color="#fb7185" stop-opacity="0"/></radialGradient>
    <clipPath id="clip"><rect width="420" height="230" rx="18"/></clipPath>
  </defs>
  <style>
    .sans { font-family: ui-sans-serif, -apple-system, &quot;Segoe UI&quot;, Inter, Roboto, Helvetica, Arial, sans-serif; } .mono { font-family: ui-monospace, SFMono-Regular, Menlo, Consolas, &quot;Liberation Mono&quot;, monospace; }
    .shine { animation: shine 6s ease-in-out infinite; }
    @keyframes shine { 0%, 100% { opacity: .55; } 50% { opacity: 1; } }
    @media (prefers-reduced-motion: reduce) { * { animation: none !important; } }
  </style>
  <g clip-path="url(#clip)">
    <rect width="420" height="230" fill="url(#bg)"/>
    <rect width="420" height="230" fill="url(#glow)" class="shine"/>
    <rect x="20" width="380" height="3" rx="1.5" fill="url(#accent)"/>
    <g class="sans">
      <rect x="24" y="26" width="36" height="36" rx="10" fill="url(#accent)" fill-opacity=".18" stroke="url(#accent)" stroke-opacity=".6"/>
      <text x="42" y="50" text-anchor="middle" font-size="17" font-weight="800" fill="#fb7185">N</text>
      <text x="72" y="41" class="mono" font-size="12" fill="#9ca3c7">nestjs/</text>
      <text x="72" y="58" font-size="16" font-weight="800" fill="#ffffff">nest <tspan class="mono" font-size="13" font-weight="600" fill="#8b93c9">#17625</tspan></text>
      <g transform="translate(316 30)">
        <rect width="80" height="24" rx="12" fill="#8957e5" fill-opacity=".2" stroke="#a371f7" stroke-opacity=".7"/>
        <path d="M14 7 v10 M14 7 a2.4 2.4 0 1 0 0.01 0 M22 17 a2.4 2.4 0 1 0 0.01 0 M14 10 c0 4 8 2 8 7" fill="none" stroke="#d2a8ff" stroke-width="1.6" stroke-linecap="round"/>
        <text x="50" y="16.5" text-anchor="middle" class="mono" font-size="11" font-weight="700" fill="#d2a8ff">MERGED</text>
      </g>
      <text x="24" y="102" font-size="16" font-weight="700" fill="#e5e7ff">fix(core): clean up repeated</text>
      <text x="24" y="124" font-size="16" font-weight="700" fill="#e5e7ff">shutdown signal listeners</text>
      <text x="24" y="152" font-size="12.5" fill="#9ca3c7">Fixed process-listener leaks from repeated</text>
      <text x="24" y="170" font-size="12.5" fill="#9ca3c7">shutdown-hook registration, with regression tests</text>
      <g transform="translate(24 196)" class="mono" font-size="11.5">
        <text fill="#3fb950">+309</text><text x="35" fill="#f85149">−35</text>
        <rect x="69" y="-9" width="99" height="9" rx="2" fill="#3fb950"/>
        <rect x="170" y="-9" width="13" height="9" rx="2" fill="#f85149" fill-opacity=".85"/>
        <text x="372" text-anchor="end" fill="#8b93c9">merged 14 Sep 2026</text>
      </g>
    </g>
  </g>
  <rect x=".5" y=".5" width="419" height="229" rx="18" fill="none" stroke="#ffffff" stroke-opacity=".09"/>
</svg>
